<svg width="210" height="23" viewBox="0 0 210 23" fill="none" xmlns="http://www.w3.org/2000/svg">
<path d="M0.792 11.28V8.4H4.44V4.728H7.56V8.4H11.208V11.28H7.56V14.952H4.44V11.28H0.792ZM13.392 18L20.688 5.52H14.016V1.992H27.144L17.976 18H13.392ZM39.3602 21.072L36.6482 22.512C35.6562 21.072 34.8722 19.28 34.2962 17.136C33.8322 15.344 33.6002 13.472 33.6002 11.52C33.6002 9.28 33.8962 7.184 34.4882 5.232C34.9682 3.664 35.6882 2.088 36.6482 0.503999L39.3602 1.944C38.5442 3.432 37.9522 4.88 37.5842 6.288C37.1362 7.968 36.9122 9.672 36.9122 11.4C36.9122 13.032 37.1042 14.688 37.4882 16.368C37.8562 17.984 38.4802 19.552 39.3602 21.072ZM50.5086 9.576C51.3086 9.816 51.9966 10.224 52.5726 10.8C53.3886 11.6 53.7966 12.544 53.7966 13.632C53.7966 14.784 53.3646 15.792 52.5006 16.656C51.3646 17.792 49.7486 18.36 47.6526 18.36C45.5886 18.36 43.9966 17.8 42.8766 16.68C41.9966 15.8 41.5566 14.784 41.5566 13.632C41.5566 13.12 41.6686 12.6 41.8926 12.072C42.1166 11.528 42.3966 11.088 42.7326 10.752C43.2606 10.224 43.9326 9.832 44.7486 9.576C44.1726 9.352 43.6926 9.048 43.3086 8.664C42.5886 7.944 42.2286 7.096 42.2286 6.12C42.2286 4.936 42.6686 3.928 43.5486 3.096C44.6046 2.12 46.0286 1.632 47.8206 1.632C49.5806 1.632 50.9566 2.144 51.9486 3.168C52.7326 3.952 53.1246 4.928 53.1246 6.096C53.1246 7.104 52.7966 7.936 52.1406 8.592C51.7086 9.024 51.1646 9.352 50.5086 9.576ZM47.7246 4.416C47.1806 4.416 46.7406 4.6 46.4046 4.968C46.0846 5.32 45.9246 5.728 45.9246 6.192C45.9246 6.592 46.0926 6.976 46.4286 7.344C46.7646 7.696 47.1886 7.872 47.7006 7.872C48.1646 7.872 48.5566 7.712 48.8766 7.392C49.2446 7.024 49.4286 6.616 49.4286 6.168C49.4286 5.656 49.2446 5.232 48.8766 4.896C48.5246 4.576 48.1406 4.416 47.7246 4.416ZM47.6766 11.256C47.1806 11.256 46.7326 11.44 46.3326 11.808C45.9486 12.192 45.7566 12.632 45.7566 13.128C45.7566 13.656 45.9406 14.104 46.3086 14.472C46.6926 14.856 47.1486 15.048 47.6766 15.048C48.2046 15.048 48.6526 14.864 49.0206 14.496C49.4046 14.112 49.5966 13.656 49.5966 13.128C49.5966 12.6 49.4046 12.16 49.0206 11.808C48.6366 11.44 48.1886 11.256 47.6766 11.256ZM66.7232 1.992V11.784H68.6672V14.976H66.7232V18H62.8832V14.976H55.1312V12.312L61.2992 1.992H66.7232ZM59.1152 11.784H62.8832V5.256L59.1152 11.784ZM81.7232 1.992V11.784H83.6672V14.976H81.7232V18H77.8832V14.976H70.1312V12.312L76.2992 1.992H81.7232ZM74.1152 11.784H77.8832V5.256L74.1152 11.784ZM97.7218 14.472V18H84.8818L88.9378 13.752C90.3938 12.232 91.4898 10.88 92.2258 9.696C92.8018 8.8 93.0898 7.968 93.0898 7.2C93.0898 6.528 92.9298 6.016 92.6098 5.664C92.3218 5.344 91.9298 5.184 91.4338 5.184C90.8418 5.184 90.3778 5.4 90.0418 5.832C89.6898 6.28 89.4978 6.936 89.4658 7.8H85.1698C85.1858 6.008 85.7778 4.528 86.9458 3.36C88.0978 2.208 89.6098 1.632 91.4818 1.632C93.3858 1.632 94.8898 2.184 95.9938 3.288C97.0338 4.328 97.5538 5.64 97.5538 7.224C97.5538 8.92 96.7618 10.504 95.1778 11.976L92.4898 14.472H97.7218ZM102.488 22.512L99.7764 21.072C100.656 19.552 101.28 17.984 101.648 16.368C102.032 14.688 102.224 13.032 102.224 11.4C102.224 9.672 102 7.968 101.552 6.288C101.184 4.88 100.592 3.432 99.7764 1.944L102.488 0.503999C103.448 2.088 104.168 3.664 104.648 5.232C105.24 7.168 105.536 9.272 105.536 11.544C105.536 13.48 105.304 15.344 104.84 17.136C104.264 19.28 103.48 21.072 102.488 22.512ZM120.726 18H116.022L120.558 12.6C119.934 12.936 119.222 13.104 118.422 13.104C116.966 13.104 115.742 12.616 114.75 11.64C113.678 10.584 113.142 9.296 113.142 7.776C113.142 6.144 113.678 4.768 114.75 3.648C116.062 2.304 117.814 1.632 120.006 1.632C122.166 1.632 123.878 2.264 125.142 3.528C126.198 4.616 126.726 5.936 126.726 7.488C126.726 9.312 125.918 11.272 124.302 13.368L120.726 18ZM120.054 4.92C119.334 4.92 118.718 5.176 118.206 5.688C117.678 6.216 117.414 6.824 117.414 7.512C117.414 8.184 117.67 8.76 118.182 9.24C118.694 9.72 119.318 9.96 120.054 9.96C120.758 9.96 121.358 9.736 121.854 9.288C122.414 8.792 122.694 8.184 122.694 7.464C122.694 6.792 122.438 6.2 121.926 5.688C121.382 5.176 120.758 4.92 120.054 4.92ZM133.533 1.992H138.261L133.701 7.44C134.453 7.104 135.197 6.936 135.933 6.936C137.325 6.936 138.533 7.448 139.557 8.472C140.565 9.48 141.069 10.752 141.069 12.288C141.069 13.968 140.517 15.36 139.413 16.464C138.149 17.728 136.445 18.36 134.301 18.36C132.061 18.36 130.309 17.712 129.045 16.416C128.069 15.408 127.581 14.16 127.581 12.672C127.581 10.784 128.373 8.792 129.957 6.696L133.533 1.992ZM132.333 14.256C132.861 14.8 133.493 15.072 134.229 15.072C134.965 15.072 135.581 14.824 136.077 14.328C136.573 13.832 136.821 13.224 136.821 12.504C136.821 11.864 136.573 11.304 136.077 10.824C135.565 10.328 134.949 10.08 134.229 10.08C133.541 10.08 132.941 10.312 132.429 10.776C131.901 11.256 131.637 11.808 131.637 12.432C131.637 13.152 131.869 13.76 132.333 14.256ZM160.581 14.472V18H147.741L151.797 13.752C153.253 12.232 154.349 10.88 155.085 9.696C155.661 8.8 155.949 7.968 155.949 7.2C155.949 6.528 155.789 6.016 155.469 5.664C155.181 5.344 154.789 5.184 154.293 5.184C153.701 5.184 153.237 5.4 152.901 5.832C152.549 6.28 152.357 6.936 152.325 7.8H148.029C148.045 6.008 148.637 4.528 149.805 3.36C150.957 2.208 152.469 1.632 154.341 1.632C156.245 1.632 157.749 2.184 158.853 3.288C159.893 4.328 160.413 5.64 160.413 7.224C160.413 8.92 159.621 10.504 158.037 11.976L155.349 14.472H160.581ZM174.972 14.472V18H162.132L166.188 13.752C167.644 12.232 168.74 10.88 169.476 9.696C170.052 8.8 170.34 7.968 170.34 7.2C170.34 6.528 170.18 6.016 169.86 5.664C169.572 5.344 169.18 5.184 168.684 5.184C168.092 5.184 167.628 5.4 167.292 5.832C166.94 6.28 166.748 6.936 166.716 7.8H162.42C162.436 6.008 163.028 4.528 164.196 3.36C165.348 2.208 166.86 1.632 168.732 1.632C170.636 1.632 172.14 2.184 173.244 3.288C174.284 4.328 174.804 5.64 174.804 7.224C174.804 8.92 174.012 10.504 172.428 11.976L169.74 14.472H174.972ZM189.492 18H184.788L189.324 12.6C188.7 12.936 187.988 13.104 187.188 13.104C185.732 13.104 184.508 12.616 183.516 11.64C182.444 10.584 181.908 9.296 181.908 7.776C181.908 6.144 182.444 4.768 183.516 3.648C184.828 2.304 186.58 1.632 188.772 1.632C190.932 1.632 192.644 2.264 193.908 3.528C194.964 4.616 195.492 5.936 195.492 7.488C195.492 9.312 194.684 11.272 193.068 13.368L189.492 18ZM188.82 4.92C188.1 4.92 187.484 5.176 186.972 5.688C186.444 6.216 186.18 6.824 186.18 7.512C186.18 8.184 186.436 8.76 186.948 9.24C187.46 9.72 188.084 9.96 188.82 9.96C189.524 9.96 190.124 9.736 190.62 9.288C191.18 8.792 191.46 8.184 191.46 7.464C191.46 6.792 191.204 6.2 190.692 5.688C190.148 5.176 189.524 4.92 188.82 4.92ZM209.355 14.472V18H196.515L200.571 13.752C202.027 12.232 203.123 10.88 203.859 9.696C204.435 8.8 204.723 7.968 204.723 7.2C204.723 6.528 204.563 6.016 204.243 5.664C203.955 5.344 203.563 5.184 203.067 5.184C202.475 5.184 202.011 5.4 201.675 5.832C201.323 6.28 201.131 6.936 201.099 7.8H196.803C196.819 6.008 197.411 4.528 198.579 3.36C199.731 2.208 201.243 1.632 203.115 1.632C205.019 1.632 206.523 2.184 207.627 3.288C208.667 4.328 209.187 5.64 209.187 7.224C209.187 8.92 208.395 10.504 206.811 11.976L204.123 14.472H209.355Z" fill="#59443F"/>
</svg>
