<svg width="310" height="40" viewBox="0 0 310 40" fill="none" xmlns="http://www.w3.org/2000/svg">
<path fill-rule="evenodd" clip-rule="evenodd" d="M290 0C278.956 0 270 8.95599 270 20C270 31.044 278.956 40 290 40C301.044 40 310 31.044 310 20C310 8.95599 301.044 0 290 0ZM302.497 20.0204C302.497 20.0204 302.497 24.0765 301.982 26.0324C301.694 27.103 300.85 27.9471 299.779 28.2352C297.823 28.75 290 28.75 290 28.75C290 28.75 282.197 28.75 280.221 28.2147C279.15 27.9266 278.306 27.0822 278.018 26.0117C277.503 24.0765 277.503 20 277.503 20C277.503 20 277.503 15.9442 278.018 13.9883C278.306 12.9178 279.171 12.0529 280.221 11.7648C282.177 11.25 290 11.25 290 11.25C290 11.25 297.823 11.25 299.779 11.7853C300.85 12.0734 301.694 12.9178 301.982 13.9883C302.518 15.9442 302.497 20.0204 302.497 20.0204ZM294.015 20L287.509 23.7469V16.2531L294.015 20Z" fill="#C3B9B5"/>
<path fill-rule="evenodd" clip-rule="evenodd" d="M220 20C220 31.0457 211.046 40 200 40C188.954 40 180 31.0457 180 20C180 8.9543 188.954 0 200 0C211.046 0 220 8.9543 220 20ZM200.275 28.9372H198.721C198.721 28.9372 195.292 29.146 192.272 25.9666C188.979 22.4989 186.07 15.6175 186.07 15.6175C186.07 15.6175 185.903 15.1664 186.085 14.9483C186.29 14.703 186.847 14.6873 186.847 14.6873L190.562 14.6627C190.562 14.6627 190.912 14.722 191.163 14.9079C191.37 15.0614 191.485 15.3484 191.485 15.3484C191.485 15.3484 192.086 16.884 192.881 18.2733C194.433 20.9854 195.156 21.5786 195.683 21.2881C196.45 20.8644 196.22 17.4541 196.22 17.4541C196.22 17.4541 196.234 16.2162 195.834 15.665C195.524 15.2377 194.938 15.1132 194.68 15.0782C194.471 15.05 194.814 14.5592 195.259 14.3389C195.927 14.0077 197.108 13.9888 198.503 14.0034C199.59 14.0145 199.903 14.083 200.327 14.1869C201.313 14.4276 201.283 15.1991 201.216 16.8636C201.197 17.3609 201.174 17.938 201.174 18.6045C201.174 18.7545 201.169 18.9143 201.165 19.0788C201.142 19.9312 201.115 20.9072 201.67 21.2699C201.955 21.4555 202.651 21.2977 204.392 18.3082C205.217 16.8915 205.836 15.2256 205.836 15.2256C205.836 15.2256 205.971 14.9286 206.181 14.8012C206.396 14.6713 206.685 14.7112 206.685 14.7112L210.595 14.6866C210.595 14.6866 211.77 14.5449 211.96 15.081C212.159 15.644 211.521 16.9583 209.924 19.111C208.406 21.1567 207.669 21.9078 207.739 22.5737C207.79 23.0584 208.269 23.498 209.187 24.3589C211.111 26.1653 211.624 27.1138 211.746 27.3392C211.756 27.3575 211.763 27.371 211.768 27.3798C212.629 28.824 210.813 28.9372 210.813 28.9372L207.341 28.9861C207.341 28.9861 206.595 29.1357 205.613 28.4535C205.099 28.0971 204.597 27.515 204.119 26.9604C203.388 26.1127 202.712 25.3291 202.135 25.514C201.167 25.8246 201.198 27.9335 201.198 27.9335C201.198 27.9335 201.205 28.3839 200.984 28.6238C200.744 28.8851 200.275 28.9372 200.275 28.9372Z" fill="#C3B9B5"/>
<path fill-rule="evenodd" clip-rule="evenodd" d="M90 19.975C90 8.94382 98.9438 0 109.975 0C121.006 0 129.95 8.94136 129.95 19.975C129.95 31.0062 121.006 39.9501 109.975 39.9501C98.9438 39.9501 90 31.0062 90 19.975ZM111.865 19.9749L115.139 19.9725L115.575 15.8427H111.86L111.865 13.7753C111.865 12.6991 111.94 12.1224 113.486 12.1224H115.553V7.99005H112.247C108.28 7.99005 107.366 10.04 107.366 13.4107L107.371 15.8427L104.375 15.8452V19.975H107.371V31.9599H111.863L111.865 19.9749Z" fill="#C3B9B5"/>
<path fill-rule="evenodd" clip-rule="evenodd" d="M20 0C8.95599 0 0 8.95599 0 20C0 31.044 8.95599 40 20 40C31.044 40 40 31.044 40 20C40 8.95599 31.044 0 20 0ZM31.4151 24.7348C31.3596 25.9573 31.1652 26.792 30.8813 27.5226C30.2847 29.0652 29.0652 30.2847 27.5226 30.8813C26.7923 31.1652 25.9573 31.3593 24.7351 31.4151C23.5104 31.4709 23.1192 31.4844 20.0003 31.4844C16.8811 31.4844 16.4902 31.4709 15.2652 31.4151C14.043 31.3593 13.208 31.1652 12.4777 30.8813C11.7111 30.593 11.0172 30.141 10.4434 29.5566C9.85931 28.9832 9.40735 28.2889 9.11896 27.5226C8.83514 26.7923 8.64075 25.9573 8.58521 24.7351C8.52875 23.5101 8.51562 23.1189 8.51562 20C8.51562 16.8811 8.52875 16.4899 8.5849 15.2652C8.64044 14.0427 8.83453 13.208 9.11835 12.4774C9.40674 11.7111 9.85901 11.0168 10.4434 10.4434C11.0168 9.85901 11.7111 9.40704 12.4774 9.11865C13.208 8.83484 14.0427 8.64075 15.2652 8.5849C16.4899 8.52905 16.8811 8.51562 20 8.51562C23.1189 8.51562 23.5101 8.52905 24.7348 8.58521C25.9573 8.64075 26.792 8.83484 27.5226 9.11835C28.2889 9.40674 28.9832 9.85901 29.5569 10.4434C30.141 11.0172 30.5933 11.7111 30.8813 12.4774C31.1655 13.208 31.3596 14.0427 31.4154 15.2652C31.4713 16.4899 31.4844 16.8811 31.4844 20C31.4844 23.1189 31.4713 23.5101 31.4151 24.7348ZM28.8952 13.2944C28.7103 12.7934 28.4154 12.34 28.0322 11.9678C27.66 11.5846 27.2069 11.2897 26.7056 11.1048C26.2991 10.9469 25.6884 10.759 24.5636 10.7078C23.3469 10.6523 22.9821 10.6404 19.9016 10.6404C16.8209 10.6404 16.4561 10.652 15.2396 10.7075C14.1148 10.759 13.5038 10.9469 13.0976 11.1048C12.5964 11.2897 12.143 11.5846 11.7711 11.9678C11.3879 12.34 11.093 12.7931 10.9078 13.2944C10.7499 13.7009 10.562 14.3119 10.5108 15.4367C10.4553 16.6531 10.4434 17.0179 10.4434 20.0987C10.4434 23.1791 10.4553 23.5439 10.5108 24.7607C10.562 25.8855 10.7499 26.4962 10.9078 26.9027C11.093 27.4039 11.3876 27.857 11.7708 28.2292C12.143 28.6124 12.5961 28.9073 13.0973 29.0922C13.5038 29.2504 14.1148 29.4383 15.2396 29.4895C16.4561 29.545 16.8206 29.5566 19.9013 29.5566C22.9824 29.5566 23.3472 29.545 24.5633 29.4895C25.6881 29.4383 26.2991 29.2504 26.7056 29.0922C27.7118 28.7041 28.507 27.9088 28.8952 26.9027C29.053 26.4962 29.241 25.8855 29.2925 24.7607C29.348 23.5439 29.3596 23.1791 29.3596 20.0987C29.3596 17.0179 29.348 16.6531 29.2925 15.4367C29.2413 14.3119 29.0534 13.7009 28.8952 13.2944ZM19.9016 26.0225C16.6296 26.0225 13.9772 23.3704 13.9772 20.0983C13.9772 16.8263 16.6296 14.1742 19.9016 14.1742C23.1733 14.1742 25.8258 16.8263 25.8258 20.0983C25.8258 23.3704 23.1733 26.0225 19.9016 26.0225ZM24.6755 13.94C24.6755 14.7046 25.2954 15.3245 26.06 15.3245C26.8246 15.3245 27.4442 14.7046 27.4445 13.94C27.4445 13.1754 26.8246 12.5555 26.06 12.5555C25.2954 12.5555 24.6755 13.1754 24.6755 13.94ZM23.8424 20C23.8424 22.1221 22.1221 23.8424 20 23.8424C17.8779 23.8424 16.1576 22.1221 16.1576 20C16.1576 17.8779 17.8779 16.1577 20 16.1577C22.1221 16.1577 23.8424 17.8779 23.8424 20Z" fill="#C3B9B5"/>
</svg>
